<svg viewBox="0 0 512 512" width="512" height="512" xmlns="http://www.w3.org/2000/svg">
  <rect x="176" y="16" width="16" height="16" fill="#d97b4f"/>
  <rect x="192" y="16" width="16" height="16" fill="#d97b4f"/>
  <rect x="304" y="16" width="16" height="16" fill="#d97b4f"/>
  <rect x="320" y="16" width="16" height="16" fill="#d97b4f"/>
  <rect x="160" y="32" width="16" height="16" fill="#d97b4f"/>
  <rect x="176" y="32" width="16" height="16" fill="#d97b4f"/>
  <rect x="192" y="32" width="16" height="16" fill="#d97b4f"/>
  <rect x="208" y="32" width="16" height="16" fill="#d97b4f"/>
  <rect x="288" y="32" width="16" height="16" fill="#d97b4f"/>
  <rect x="304" y="32" width="16" height="16" fill="#d97b4f"/>
  <rect x="320" y="32" width="16" height="16" fill="#d97b4f"/>
  <rect x="336" y="32" width="16" height="16" fill="#d97b4f"/>
  <rect x="112" y="48" width="16" height="16" fill="#b85c2a"/>
  <rect x="128" y="48" width="16" height="16" fill="#b85c2a"/>
  <rect x="144" y="48" width="16" height="16" fill="#d97b4f"/>
  <rect x="160" y="48" width="16" height="16" fill="#d97b4f"/>
  <rect x="176" y="48" width="16" height="16" fill="#d97b4f"/>
  <rect x="192" y="48" width="16" height="16" fill="#d97b4f"/>
  <rect x="208" y="48" width="16" height="16" fill="#d97b4f"/>
  <rect x="288" y="48" width="16" height="16" fill="#d97b4f"/>
  <rect x="304" y="48" width="16" height="16" fill="#d97b4f"/>
  <rect x="320" y="48" width="16" height="16" fill="#d97b4f"/>
  <rect x="336" y="48" width="16" height="16" fill="#d97b4f"/>
  <rect x="352" y="48" width="16" height="16" fill="#d97b4f"/>
  <rect x="96" y="64" width="16" height="16" fill="#b85c2a"/>
  <rect x="112" y="64" width="16" height="16" fill="#b85c2a"/>
  <rect x="128" y="64" width="16" height="16" fill="#b85c2a"/>
  <rect x="144" y="64" width="16" height="16" fill="#d97b4f"/>
  <rect x="160" y="64" width="16" height="16" fill="#d97b4f"/>
  <rect x="176" y="64" width="16" height="16" fill="#d97b4f"/>
  <rect x="192" y="64" width="16" height="16" fill="#d97b4f"/>
  <rect x="208" y="64" width="16" height="16" fill="#d97b4f"/>
  <rect x="224" y="64" width="16" height="16" fill="#d97b4f"/>
  <rect x="240" y="64" width="16" height="16" fill="#d97b4f"/>
  <rect x="256" y="64" width="16" height="16" fill="#d97b4f"/>
  <rect x="272" y="64" width="16" height="16" fill="#d97b4f"/>
  <rect x="288" y="64" width="16" height="16" fill="#d97b4f"/>
  <rect x="304" y="64" width="16" height="16" fill="#d97b4f"/>
  <rect x="320" y="64" width="16" height="16" fill="#d97b4f"/>
  <rect x="336" y="64" width="16" height="16" fill="#d97b4f"/>
  <rect x="352" y="64" width="16" height="16" fill="#d97b4f"/>
  <rect x="80" y="80" width="16" height="16" fill="#b85c2a"/>
  <rect x="96" y="80" width="16" height="16" fill="#b85c2a"/>
  <rect x="112" y="80" width="16" height="16" fill="#b85c2a"/>
  <rect x="128" y="80" width="16" height="16" fill="#d97b4f"/>
  <rect x="144" y="80" width="16" height="16" fill="#d97b4f"/>
  <rect x="160" y="80" width="16" height="16" fill="#d97b4f"/>
  <rect x="176" y="80" width="16" height="16" fill="#d97b4f"/>
  <rect x="192" y="80" width="16" height="16" fill="#d97b4f"/>
  <rect x="208" y="80" width="16" height="16" fill="#d97b4f"/>
  <rect x="224" y="80" width="16" height="16" fill="#d97b4f"/>
  <rect x="240" y="80" width="16" height="16" fill="#d97b4f"/>
  <rect x="256" y="80" width="16" height="16" fill="#d97b4f"/>
  <rect x="272" y="80" width="16" height="16" fill="#d97b4f"/>
  <rect x="288" y="80" width="16" height="16" fill="#d97b4f"/>
  <rect x="304" y="80" width="16" height="16" fill="#d97b4f"/>
  <rect x="320" y="80" width="16" height="16" fill="#d97b4f"/>
  <rect x="336" y="80" width="16" height="16" fill="#d97b4f"/>
  <rect x="352" y="80" width="16" height="16" fill="#d97b4f"/>
  <rect x="368" y="80" width="16" height="16" fill="#d97b4f"/>
  <rect x="64" y="96" width="16" height="16" fill="#b85c2a"/>
  <rect x="80" y="96" width="16" height="16" fill="#b85c2a"/>
  <rect x="96" y="96" width="16" height="16" fill="#b85c2a"/>
  <rect x="112" y="96" width="16" height="16" fill="#d97b4f"/>
  <rect x="128" y="96" width="16" height="16" fill="#d97b4f"/>
  <rect x="144" y="96" width="16" height="16" fill="#d97b4f"/>
  <rect x="160" y="96" width="16" height="16" fill="#d97b4f"/>
  <rect x="176" y="96" width="16" height="16" fill="#d97b4f"/>
  <rect x="192" y="96" width="16" height="16" fill="#d97b4f"/>
  <rect x="208" y="96" width="16" height="16" fill="#d97b4f"/>
  <rect x="224" y="96" width="16" height="16" fill="#d97b4f"/>
  <rect x="240" y="96" width="16" height="16" fill="#d97b4f"/>
  <rect x="256" y="96" width="16" height="16" fill="#d97b4f"/>
  <rect x="272" y="96" width="16" height="16" fill="#d97b4f"/>
  <rect x="288" y="96" width="16" height="16" fill="#d97b4f"/>
  <rect x="304" y="96" width="16" height="16" fill="#d97b4f"/>
  <rect x="320" y="96" width="16" height="16" fill="#d97b4f"/>
  <rect x="336" y="96" width="16" height="16" fill="#d97b4f"/>
  <rect x="352" y="96" width="16" height="16" fill="#d97b4f"/>
  <rect x="368" y="96" width="16" height="16" fill="#d97b4f"/>
  <rect x="48" y="112" width="16" height="16" fill="#b85c2a"/>
  <rect x="64" y="112" width="16" height="16" fill="#b85c2a"/>
  <rect x="80" y="112" width="16" height="16" fill="#b85c2a"/>
  <rect x="96" y="112" width="16" height="16" fill="#b85c2a"/>
  <rect x="112" y="112" width="16" height="16" fill="#d97b4f"/>
  <rect x="128" y="112" width="16" height="16" fill="#d97b4f"/>
  <rect x="144" y="112" width="16" height="16" fill="#d97b4f"/>
  <rect x="160" y="112" width="16" height="16" fill="#d97b4f"/>
  <rect x="176" y="112" width="16" height="16" fill="#d97b4f"/>
  <rect x="192" y="112" width="16" height="16" fill="#d97b4f"/>
  <rect x="208" y="112" width="16" height="16" fill="#d97b4f"/>
  <rect x="224" y="112" width="16" height="16" fill="#d97b4f"/>
  <rect x="240" y="112" width="16" height="16" fill="#d97b4f"/>
  <rect x="256" y="112" width="16" height="16" fill="#d97b4f"/>
  <rect x="272" y="112" width="16" height="16" fill="#d97b4f"/>
  <rect x="288" y="112" width="16" height="16" fill="#d97b4f"/>
  <rect x="304" y="112" width="16" height="16" fill="#d97b4f"/>
  <rect x="320" y="112" width="16" height="16" fill="#d97b4f"/>
  <rect x="336" y="112" width="16" height="16" fill="#d97b4f"/>
  <rect x="352" y="112" width="16" height="16" fill="#d97b4f"/>
  <rect x="368" y="112" width="16" height="16" fill="#d97b4f"/>
  <rect x="32" y="128" width="16" height="16" fill="#b85c2a"/>
  <rect x="48" y="128" width="16" height="16" fill="#b85c2a"/>
  <rect x="64" y="128" width="16" height="16" fill="#b85c2a"/>
  <rect x="80" y="128" width="16" height="16" fill="#b85c2a"/>
  <rect x="112" y="128" width="16" height="16" fill="#d97b4f"/>
  <rect x="128" y="128" width="16" height="16" fill="#d97b4f"/>
  <rect x="144" y="128" width="16" height="16" fill="#d97b4f"/>
  <rect x="160" y="128" width="16" height="16" fill="#d97b4f"/>
  <rect x="176" y="128" width="16" height="16" fill="#d97b4f"/>
  <rect x="192" y="128" width="16" height="16" fill="#1c1917"/>
  <rect x="208" y="128" width="16" height="16" fill="#1c1917"/>
  <rect x="224" y="128" width="16" height="16" fill="#d97b4f"/>
  <rect x="240" y="128" width="16" height="16" fill="#d97b4f"/>
  <rect x="256" y="128" width="16" height="16" fill="#d97b4f"/>
  <rect x="272" y="128" width="16" height="16" fill="#d97b4f"/>
  <rect x="288" y="128" width="16" height="16" fill="#d97b4f"/>
  <rect x="304" y="128" width="16" height="16" fill="#1c1917"/>
  <rect x="320" y="128" width="16" height="16" fill="#1c1917"/>
  <rect x="336" y="128" width="16" height="16" fill="#d97b4f"/>
  <rect x="352" y="128" width="16" height="16" fill="#d97b4f"/>
  <rect x="368" y="128" width="16" height="16" fill="#d97b4f"/>
  <rect x="16" y="144" width="16" height="16" fill="#b85c2a"/>
  <rect x="32" y="144" width="16" height="16" fill="#b85c2a"/>
  <rect x="48" y="144" width="16" height="16" fill="#b85c2a"/>
  <rect x="64" y="144" width="16" height="16" fill="#b85c2a"/>
  <rect x="112" y="144" width="16" height="16" fill="#d97b4f"/>
  <rect x="128" y="144" width="16" height="16" fill="#d97b4f"/>
  <rect x="144" y="144" width="16" height="16" fill="#d97b4f"/>
  <rect x="160" y="144" width="16" height="16" fill="#d97b4f"/>
  <rect x="176" y="144" width="16" height="16" fill="#d97b4f"/>
  <rect x="192" y="144" width="16" height="16" fill="#1c1917"/>
  <rect x="208" y="144" width="16" height="16" fill="#1c1917"/>
  <rect x="224" y="144" width="16" height="16" fill="#d97b4f"/>
  <rect x="240" y="144" width="16" height="16" fill="#d97b4f"/>
  <rect x="256" y="144" width="16" height="16" fill="#d97b4f"/>
  <rect x="272" y="144" width="16" height="16" fill="#d97b4f"/>
  <rect x="288" y="144" width="16" height="16" fill="#d97b4f"/>
  <rect x="304" y="144" width="16" height="16" fill="#1c1917"/>
  <rect x="320" y="144" width="16" height="16" fill="#1c1917"/>
  <rect x="336" y="144" width="16" height="16" fill="#d97b4f"/>
  <rect x="352" y="144" width="16" height="16" fill="#d97b4f"/>
  <rect x="368" y="144" width="16" height="16" fill="#d97b4f"/>
  <rect x="0" y="160" width="16" height="16" fill="#b85c2a"/>
  <rect x="16" y="160" width="16" height="16" fill="#b85c2a"/>
  <rect x="32" y="160" width="16" height="16" fill="#b85c2a"/>
  <rect x="48" y="160" width="16" height="16" fill="#b85c2a"/>
  <rect x="112" y="160" width="16" height="16" fill="#d97b4f"/>
  <rect x="128" y="160" width="16" height="16" fill="#d97b4f"/>
  <rect x="144" y="160" width="16" height="16" fill="#d97b4f"/>
  <rect x="160" y="160" width="16" height="16" fill="#d97b4f"/>
  <rect x="176" y="160" width="16" height="16" fill="#d97b4f"/>
  <rect x="192" y="160" width="16" height="16" fill="#d97b4f"/>
  <rect x="208" y="160" width="16" height="16" fill="#f0c49a"/>
  <rect x="224" y="160" width="16" height="16" fill="#f0c49a"/>
  <rect x="240" y="160" width="16" height="16" fill="#f0c49a"/>
  <rect x="256" y="160" width="16" height="16" fill="#f0c49a"/>
  <rect x="272" y="160" width="16" height="16" fill="#f0c49a"/>
  <rect x="288" y="160" width="16" height="16" fill="#f0c49a"/>
  <rect x="304" y="160" width="16" height="16" fill="#d97b4f"/>
  <rect x="320" y="160" width="16" height="16" fill="#d97b4f"/>
  <rect x="336" y="160" width="16" height="16" fill="#d97b4f"/>
  <rect x="352" y="160" width="16" height="16" fill="#d97b4f"/>
  <rect x="368" y="160" width="16" height="16" fill="#d97b4f"/>
  <rect x="0" y="176" width="16" height="16" fill="#b85c2a"/>
  <rect x="16" y="176" width="16" height="16" fill="#b85c2a"/>
  <rect x="32" y="176" width="16" height="16" fill="#b85c2a"/>
  <rect x="48" y="176" width="16" height="16" fill="#b85c2a"/>
  <rect x="128" y="176" width="16" height="16" fill="#d97b4f"/>
  <rect x="144" y="176" width="16" height="16" fill="#d97b4f"/>
  <rect x="160" y="176" width="16" height="16" fill="#d97b4f"/>
  <rect x="176" y="176" width="16" height="16" fill="#d97b4f"/>
  <rect x="192" y="176" width="16" height="16" fill="#d97b4f"/>
  <rect x="208" y="176" width="16" height="16" fill="#f0c49a"/>
  <rect x="224" y="176" width="16" height="16" fill="#f0c49a"/>
  <rect x="240" y="176" width="16" height="16" fill="#f0c49a"/>
  <rect x="256" y="176" width="16" height="16" fill="#f0c49a"/>
  <rect x="272" y="176" width="16" height="16" fill="#f0c49a"/>
  <rect x="288" y="176" width="16" height="16" fill="#f0c49a"/>
  <rect x="304" y="176" width="16" height="16" fill="#d97b4f"/>
  <rect x="320" y="176" width="16" height="16" fill="#d97b4f"/>
  <rect x="336" y="176" width="16" height="16" fill="#d97b4f"/>
  <rect x="352" y="176" width="16" height="16" fill="#d97b4f"/>
  <rect x="0" y="192" width="16" height="16" fill="#b85c2a"/>
  <rect x="16" y="192" width="16" height="16" fill="#b85c2a"/>
  <rect x="32" y="192" width="16" height="16" fill="#b85c2a"/>
  <rect x="48" y="192" width="16" height="16" fill="#b85c2a"/>
  <rect x="144" y="192" width="16" height="16" fill="#d97b4f"/>
  <rect x="160" y="192" width="16" height="16" fill="#d97b4f"/>
  <rect x="176" y="192" width="16" height="16" fill="#d97b4f"/>
  <rect x="192" y="192" width="16" height="16" fill="#d97b4f"/>
  <rect x="208" y="192" width="16" height="16" fill="#f0c49a"/>
  <rect x="224" y="192" width="16" height="16" fill="#ffffff"/>
  <rect x="240" y="192" width="16" height="16" fill="#ffffff"/>
  <rect x="256" y="192" width="16" height="16" fill="#f0c49a"/>
  <rect x="272" y="192" width="16" height="16" fill="#ffffff"/>
  <rect x="288" y="192" width="16" height="16" fill="#ffffff"/>
  <rect x="304" y="192" width="16" height="16" fill="#d97b4f"/>
  <rect x="320" y="192" width="16" height="16" fill="#d97b4f"/>
  <rect x="336" y="192" width="16" height="16" fill="#d97b4f"/>
  <rect x="0" y="208" width="16" height="16" fill="#b85c2a"/>
  <rect x="16" y="208" width="16" height="16" fill="#b85c2a"/>
  <rect x="32" y="208" width="16" height="16" fill="#b85c2a"/>
  <rect x="48" y="208" width="16" height="16" fill="#b85c2a"/>
  <rect x="128" y="208" width="16" height="16" fill="#d97b4f"/>
  <rect x="144" y="208" width="16" height="16" fill="#d97b4f"/>
  <rect x="160" y="208" width="16" height="16" fill="#d97b4f"/>
  <rect x="176" y="208" width="16" height="16" fill="#d97b4f"/>
  <rect x="192" y="208" width="16" height="16" fill="#d97b4f"/>
  <rect x="208" y="208" width="16" height="16" fill="#d97b4f"/>
  <rect x="224" y="208" width="16" height="16" fill="#d97b4f"/>
  <rect x="240" y="208" width="16" height="16" fill="#d97b4f"/>
  <rect x="256" y="208" width="16" height="16" fill="#d97b4f"/>
  <rect x="272" y="208" width="16" height="16" fill="#d97b4f"/>
  <rect x="288" y="208" width="16" height="16" fill="#d97b4f"/>
  <rect x="304" y="208" width="16" height="16" fill="#d97b4f"/>
  <rect x="320" y="208" width="16" height="16" fill="#d97b4f"/>
  <rect x="336" y="208" width="16" height="16" fill="#d97b4f"/>
  <rect x="352" y="208" width="16" height="16" fill="#d97b4f"/>
  <rect x="368" y="208" width="16" height="16" fill="#d97b4f"/>
  <rect x="16" y="224" width="16" height="16" fill="#b85c2a"/>
  <rect x="32" y="224" width="16" height="16" fill="#b85c2a"/>
  <rect x="48" y="224" width="16" height="16" fill="#b85c2a"/>
  <rect x="64" y="224" width="16" height="16" fill="#b85c2a"/>
  <rect x="128" y="224" width="16" height="16" fill="#d97b4f"/>
  <rect x="144" y="224" width="16" height="16" fill="#d97b4f"/>
  <rect x="160" y="224" width="16" height="16" fill="#d97b4f"/>
  <rect x="176" y="224" width="16" height="16" fill="#d97b4f"/>
  <rect x="192" y="224" width="16" height="16" fill="#d97b4f"/>
  <rect x="208" y="224" width="16" height="16" fill="#d97b4f"/>
  <rect x="224" y="224" width="16" height="16" fill="#d97b4f"/>
  <rect x="240" y="224" width="16" height="16" fill="#d97b4f"/>
  <rect x="256" y="224" width="16" height="16" fill="#d97b4f"/>
  <rect x="272" y="224" width="16" height="16" fill="#d97b4f"/>
  <rect x="288" y="224" width="16" height="16" fill="#d97b4f"/>
  <rect x="304" y="224" width="16" height="16" fill="#d97b4f"/>
  <rect x="320" y="224" width="16" height="16" fill="#d97b4f"/>
  <rect x="336" y="224" width="16" height="16" fill="#d97b4f"/>
  <rect x="352" y="224" width="16" height="16" fill="#d97b4f"/>
  <rect x="368" y="224" width="16" height="16" fill="#d97b4f"/>
  <rect x="32" y="240" width="16" height="16" fill="#b85c2a"/>
  <rect x="48" y="240" width="16" height="16" fill="#b85c2a"/>
  <rect x="64" y="240" width="16" height="16" fill="#b85c2a"/>
  <rect x="80" y="240" width="16" height="16" fill="#b85c2a"/>
  <rect x="128" y="240" width="16" height="16" fill="#d97b4f"/>
  <rect x="144" y="240" width="16" height="16" fill="#d97b4f"/>
  <rect x="160" y="240" width="16" height="16" fill="#d97b4f"/>
  <rect x="176" y="240" width="16" height="16" fill="#d97b4f"/>
  <rect x="192" y="240" width="16" height="16" fill="#d97b4f"/>
  <rect x="208" y="240" width="16" height="16" fill="#d97b4f"/>
  <rect x="224" y="240" width="16" height="16" fill="#d97b4f"/>
  <rect x="240" y="240" width="16" height="16" fill="#d97b4f"/>
  <rect x="256" y="240" width="16" height="16" fill="#d97b4f"/>
  <rect x="272" y="240" width="16" height="16" fill="#d97b4f"/>
  <rect x="288" y="240" width="16" height="16" fill="#d97b4f"/>
  <rect x="304" y="240" width="16" height="16" fill="#d97b4f"/>
  <rect x="320" y="240" width="16" height="16" fill="#d97b4f"/>
  <rect x="336" y="240" width="16" height="16" fill="#d97b4f"/>
  <rect x="352" y="240" width="16" height="16" fill="#d97b4f"/>
  <rect x="368" y="240" width="16" height="16" fill="#d97b4f"/>
  <rect x="32" y="256" width="16" height="16" fill="#b85c2a"/>
  <rect x="48" y="256" width="16" height="16" fill="#b85c2a"/>
  <rect x="64" y="256" width="16" height="16" fill="#b85c2a"/>
  <rect x="80" y="256" width="16" height="16" fill="#b85c2a"/>
  <rect x="128" y="256" width="16" height="16" fill="#d97b4f"/>
  <rect x="144" y="256" width="16" height="16" fill="#d97b4f"/>
  <rect x="160" y="256" width="16" height="16" fill="#d97b4f"/>
  <rect x="176" y="256" width="16" height="16" fill="#f0c49a"/>
  <rect x="192" y="256" width="16" height="16" fill="#f0c49a"/>
  <rect x="208" y="256" width="16" height="16" fill="#f0c49a"/>
  <rect x="224" y="256" width="16" height="16" fill="#f0c49a"/>
  <rect x="240" y="256" width="16" height="16" fill="#f0c49a"/>
  <rect x="256" y="256" width="16" height="16" fill="#f0c49a"/>
  <rect x="272" y="256" width="16" height="16" fill="#f0c49a"/>
  <rect x="288" y="256" width="16" height="16" fill="#f0c49a"/>
  <rect x="304" y="256" width="16" height="16" fill="#f0c49a"/>
  <rect x="320" y="256" width="16" height="16" fill="#f0c49a"/>
  <rect x="336" y="256" width="16" height="16" fill="#f0c49a"/>
  <rect x="352" y="256" width="16" height="16" fill="#d97b4f"/>
  <rect x="368" y="256" width="16" height="16" fill="#d97b4f"/>
  <rect x="16" y="272" width="16" height="16" fill="#b85c2a"/>
  <rect x="32" y="272" width="16" height="16" fill="#b85c2a"/>
  <rect x="48" y="272" width="16" height="16" fill="#b85c2a"/>
  <rect x="64" y="272" width="16" height="16" fill="#b85c2a"/>
  <rect x="128" y="272" width="16" height="16" fill="#d97b4f"/>
  <rect x="144" y="272" width="16" height="16" fill="#d97b4f"/>
  <rect x="160" y="272" width="16" height="16" fill="#d97b4f"/>
  <rect x="176" y="272" width="16" height="16" fill="#f0c49a"/>
  <rect x="192" y="272" width="16" height="16" fill="#c96b3a"/>
  <rect x="208" y="272" width="16" height="16" fill="#c96b3a"/>
  <rect x="224" y="272" width="16" height="16" fill="#c96b3a"/>
  <rect x="240" y="272" width="16" height="16" fill="#f0c49a"/>
  <rect x="256" y="272" width="16" height="16" fill="#f0c49a"/>
  <rect x="272" y="272" width="16" height="16" fill="#f0c49a"/>
  <rect x="288" y="272" width="16" height="16" fill="#c96b3a"/>
  <rect x="304" y="272" width="16" height="16" fill="#c96b3a"/>
  <rect x="320" y="272" width="16" height="16" fill="#c96b3a"/>
  <rect x="336" y="272" width="16" height="16" fill="#f0c49a"/>
  <rect x="352" y="272" width="16" height="16" fill="#d97b4f"/>
  <rect x="368" y="272" width="16" height="16" fill="#d97b4f"/>
  <rect x="0" y="288" width="16" height="16" fill="#b85c2a"/>
  <rect x="16" y="288" width="16" height="16" fill="#b85c2a"/>
  <rect x="32" y="288" width="16" height="16" fill="#b85c2a"/>
  <rect x="48" y="288" width="16" height="16" fill="#b85c2a"/>
  <rect x="128" y="288" width="16" height="16" fill="#d97b4f"/>
  <rect x="144" y="288" width="16" height="16" fill="#d97b4f"/>
  <rect x="160" y="288" width="16" height="16" fill="#d97b4f"/>
  <rect x="176" y="288" width="16" height="16" fill="#f0c49a"/>
  <rect x="192" y="288" width="16" height="16" fill="#c96b3a"/>
  <rect x="208" y="288" width="16" height="16" fill="#f0c49a"/>
  <rect x="224" y="288" width="16" height="16" fill="#c96b3a"/>
  <rect x="240" y="288" width="16" height="16" fill="#f0c49a"/>
  <rect x="256" y="288" width="16" height="16" fill="#f0c49a"/>
  <rect x="272" y="288" width="16" height="16" fill="#f0c49a"/>
  <rect x="288" y="288" width="16" height="16" fill="#c96b3a"/>
  <rect x="304" y="288" width="16" height="16" fill="#f0c49a"/>
  <rect x="320" y="288" width="16" height="16" fill="#c96b3a"/>
  <rect x="336" y="288" width="16" height="16" fill="#f0c49a"/>
  <rect x="352" y="288" width="16" height="16" fill="#d97b4f"/>
  <rect x="368" y="288" width="16" height="16" fill="#d97b4f"/>
  <rect x="0" y="304" width="16" height="16" fill="#b85c2a"/>
  <rect x="16" y="304" width="16" height="16" fill="#b85c2a"/>
  <rect x="32" y="304" width="16" height="16" fill="#b85c2a"/>
  <rect x="48" y="304" width="16" height="16" fill="#b85c2a"/>
  <rect x="128" y="304" width="16" height="16" fill="#d97b4f"/>
  <rect x="144" y="304" width="16" height="16" fill="#d97b4f"/>
  <rect x="160" y="304" width="16" height="16" fill="#d97b4f"/>
  <rect x="176" y="304" width="16" height="16" fill="#f0c49a"/>
  <rect x="192" y="304" width="16" height="16" fill="#c96b3a"/>
  <rect x="208" y="304" width="16" height="16" fill="#c96b3a"/>
  <rect x="224" y="304" width="16" height="16" fill="#c96b3a"/>
  <rect x="240" y="304" width="16" height="16" fill="#f0c49a"/>
  <rect x="256" y="304" width="16" height="16" fill="#f0c49a"/>
  <rect x="272" y="304" width="16" height="16" fill="#f0c49a"/>
  <rect x="288" y="304" width="16" height="16" fill="#c96b3a"/>
  <rect x="304" y="304" width="16" height="16" fill="#c96b3a"/>
  <rect x="320" y="304" width="16" height="16" fill="#c96b3a"/>
  <rect x="336" y="304" width="16" height="16" fill="#f0c49a"/>
  <rect x="352" y="304" width="16" height="16" fill="#d97b4f"/>
  <rect x="368" y="304" width="16" height="16" fill="#d97b4f"/>
  <rect x="0" y="320" width="16" height="16" fill="#b85c2a"/>
  <rect x="16" y="320" width="16" height="16" fill="#b85c2a"/>
  <rect x="32" y="320" width="16" height="16" fill="#b85c2a"/>
  <rect x="48" y="320" width="16" height="16" fill="#b85c2a"/>
  <rect x="128" y="320" width="16" height="16" fill="#d97b4f"/>
  <rect x="144" y="320" width="16" height="16" fill="#d97b4f"/>
  <rect x="160" y="320" width="16" height="16" fill="#d97b4f"/>
  <rect x="176" y="320" width="16" height="16" fill="#f0c49a"/>
  <rect x="192" y="320" width="16" height="16" fill="#f0c49a"/>
  <rect x="208" y="320" width="16" height="16" fill="#f0c49a"/>
  <rect x="224" y="320" width="16" height="16" fill="#f0c49a"/>
  <rect x="240" y="320" width="16" height="16" fill="#f0c49a"/>
  <rect x="256" y="320" width="16" height="16" fill="#f0c49a"/>
  <rect x="272" y="320" width="16" height="16" fill="#f0c49a"/>
  <rect x="288" y="320" width="16" height="16" fill="#f0c49a"/>
  <rect x="304" y="320" width="16" height="16" fill="#f0c49a"/>
  <rect x="320" y="320" width="16" height="16" fill="#f0c49a"/>
  <rect x="336" y="320" width="16" height="16" fill="#f0c49a"/>
  <rect x="352" y="320" width="16" height="16" fill="#d97b4f"/>
  <rect x="368" y="320" width="16" height="16" fill="#d97b4f"/>
  <rect x="16" y="336" width="16" height="16" fill="#b85c2a"/>
  <rect x="32" y="336" width="16" height="16" fill="#b85c2a"/>
  <rect x="48" y="336" width="16" height="16" fill="#b85c2a"/>
  <rect x="64" y="336" width="16" height="16" fill="#b85c2a"/>
  <rect x="128" y="336" width="16" height="16" fill="#d97b4f"/>
  <rect x="144" y="336" width="16" height="16" fill="#d97b4f"/>
  <rect x="160" y="336" width="16" height="16" fill="#d97b4f"/>
  <rect x="176" y="336" width="16" height="16" fill="#f0c49a"/>
  <rect x="192" y="336" width="16" height="16" fill="#f0c49a"/>
  <rect x="208" y="336" width="16" height="16" fill="#f0c49a"/>
  <rect x="224" y="336" width="16" height="16" fill="#f0c49a"/>
  <rect x="240" y="336" width="16" height="16" fill="#f0c49a"/>
  <rect x="256" y="336" width="16" height="16" fill="#f0c49a"/>
  <rect x="272" y="336" width="16" height="16" fill="#f0c49a"/>
  <rect x="288" y="336" width="16" height="16" fill="#f0c49a"/>
  <rect x="304" y="336" width="16" height="16" fill="#f0c49a"/>
  <rect x="320" y="336" width="16" height="16" fill="#f0c49a"/>
  <rect x="336" y="336" width="16" height="16" fill="#f0c49a"/>
  <rect x="352" y="336" width="16" height="16" fill="#d97b4f"/>
  <rect x="368" y="336" width="16" height="16" fill="#d97b4f"/>
  <rect x="32" y="352" width="16" height="16" fill="#b85c2a"/>
  <rect x="48" y="352" width="16" height="16" fill="#b85c2a"/>
  <rect x="64" y="352" width="16" height="16" fill="#b85c2a"/>
  <rect x="80" y="352" width="16" height="16" fill="#b85c2a"/>
  <rect x="128" y="352" width="16" height="16" fill="#d97b4f"/>
  <rect x="144" y="352" width="16" height="16" fill="#d97b4f"/>
  <rect x="160" y="352" width="16" height="16" fill="#d97b4f"/>
  <rect x="176" y="352" width="16" height="16" fill="#f0c49a"/>
  <rect x="192" y="352" width="16" height="16" fill="#c96b3a"/>
  <rect x="208" y="352" width="16" height="16" fill="#c96b3a"/>
  <rect x="224" y="352" width="16" height="16" fill="#c96b3a"/>
  <rect x="240" y="352" width="16" height="16" fill="#f0c49a"/>
  <rect x="256" y="352" width="16" height="16" fill="#f0c49a"/>
  <rect x="272" y="352" width="16" height="16" fill="#f0c49a"/>
  <rect x="288" y="352" width="16" height="16" fill="#c96b3a"/>
  <rect x="304" y="352" width="16" height="16" fill="#f0c49a"/>
  <rect x="320" y="352" width="16" height="16" fill="#c96b3a"/>
  <rect x="336" y="352" width="16" height="16" fill="#f0c49a"/>
  <rect x="352" y="352" width="16" height="16" fill="#d97b4f"/>
  <rect x="368" y="352" width="16" height="16" fill="#d97b4f"/>
  <rect x="48" y="368" width="16" height="16" fill="#b85c2a"/>
  <rect x="64" y="368" width="16" height="16" fill="#b85c2a"/>
  <rect x="80" y="368" width="16" height="16" fill="#b85c2a"/>
  <rect x="128" y="368" width="16" height="16" fill="#d97b4f"/>
  <rect x="144" y="368" width="16" height="16" fill="#d97b4f"/>
  <rect x="160" y="368" width="16" height="16" fill="#d97b4f"/>
  <rect x="176" y="368" width="16" height="16" fill="#f0c49a"/>
  <rect x="192" y="368" width="16" height="16" fill="#c96b3a"/>
  <rect x="208" y="368" width="16" height="16" fill="#f0c49a"/>
  <rect x="224" y="368" width="16" height="16" fill="#c96b3a"/>
  <rect x="240" y="368" width="16" height="16" fill="#f0c49a"/>
  <rect x="256" y="368" width="16" height="16" fill="#f0c49a"/>
  <rect x="272" y="368" width="16" height="16" fill="#f0c49a"/>
  <rect x="288" y="368" width="16" height="16" fill="#f0c49a"/>
  <rect x="304" y="368" width="16" height="16" fill="#c96b3a"/>
  <rect x="320" y="368" width="16" height="16" fill="#f0c49a"/>
  <rect x="336" y="368" width="16" height="16" fill="#f0c49a"/>
  <rect x="352" y="368" width="16" height="16" fill="#d97b4f"/>
  <rect x="368" y="368" width="16" height="16" fill="#d97b4f"/>
  <rect x="48" y="384" width="16" height="16" fill="#b85c2a"/>
  <rect x="64" y="384" width="16" height="16" fill="#b85c2a"/>
  <rect x="128" y="384" width="16" height="16" fill="#d97b4f"/>
  <rect x="144" y="384" width="16" height="16" fill="#d97b4f"/>
  <rect x="160" y="384" width="16" height="16" fill="#d97b4f"/>
  <rect x="176" y="384" width="16" height="16" fill="#f0c49a"/>
  <rect x="192" y="384" width="16" height="16" fill="#c96b3a"/>
  <rect x="208" y="384" width="16" height="16" fill="#c96b3a"/>
  <rect x="224" y="384" width="16" height="16" fill="#c96b3a"/>
  <rect x="240" y="384" width="16" height="16" fill="#f0c49a"/>
  <rect x="256" y="384" width="16" height="16" fill="#f0c49a"/>
  <rect x="272" y="384" width="16" height="16" fill="#f0c49a"/>
  <rect x="288" y="384" width="16" height="16" fill="#c96b3a"/>
  <rect x="304" y="384" width="16" height="16" fill="#f0c49a"/>
  <rect x="320" y="384" width="16" height="16" fill="#c96b3a"/>
  <rect x="336" y="384" width="16" height="16" fill="#f0c49a"/>
  <rect x="352" y="384" width="16" height="16" fill="#d97b4f"/>
  <rect x="368" y="384" width="16" height="16" fill="#d97b4f"/>
  <rect x="128" y="400" width="16" height="16" fill="#d97b4f"/>
  <rect x="144" y="400" width="16" height="16" fill="#d97b4f"/>
  <rect x="160" y="400" width="16" height="16" fill="#d97b4f"/>
  <rect x="176" y="400" width="16" height="16" fill="#f0c49a"/>
  <rect x="192" y="400" width="16" height="16" fill="#f0c49a"/>
  <rect x="208" y="400" width="16" height="16" fill="#f0c49a"/>
  <rect x="224" y="400" width="16" height="16" fill="#f0c49a"/>
  <rect x="240" y="400" width="16" height="16" fill="#f0c49a"/>
  <rect x="256" y="400" width="16" height="16" fill="#f0c49a"/>
  <rect x="272" y="400" width="16" height="16" fill="#f0c49a"/>
  <rect x="288" y="400" width="16" height="16" fill="#f0c49a"/>
  <rect x="304" y="400" width="16" height="16" fill="#f0c49a"/>
  <rect x="320" y="400" width="16" height="16" fill="#f0c49a"/>
  <rect x="336" y="400" width="16" height="16" fill="#f0c49a"/>
  <rect x="352" y="400" width="16" height="16" fill="#d97b4f"/>
  <rect x="368" y="400" width="16" height="16" fill="#d97b4f"/>
  <rect x="128" y="416" width="16" height="16" fill="#d97b4f"/>
  <rect x="144" y="416" width="16" height="16" fill="#d97b4f"/>
  <rect x="160" y="416" width="16" height="16" fill="#d97b4f"/>
  <rect x="176" y="416" width="16" height="16" fill="#f0c49a"/>
  <rect x="192" y="416" width="16" height="16" fill="#f0c49a"/>
  <rect x="208" y="416" width="16" height="16" fill="#f0c49a"/>
  <rect x="224" y="416" width="16" height="16" fill="#f0c49a"/>
  <rect x="240" y="416" width="16" height="16" fill="#f0c49a"/>
  <rect x="256" y="416" width="16" height="16" fill="#f0c49a"/>
  <rect x="272" y="416" width="16" height="16" fill="#f0c49a"/>
  <rect x="288" y="416" width="16" height="16" fill="#f0c49a"/>
  <rect x="304" y="416" width="16" height="16" fill="#f0c49a"/>
  <rect x="320" y="416" width="16" height="16" fill="#f0c49a"/>
  <rect x="336" y="416" width="16" height="16" fill="#f0c49a"/>
  <rect x="352" y="416" width="16" height="16" fill="#d97b4f"/>
  <rect x="368" y="416" width="16" height="16" fill="#d97b4f"/>
  <rect x="128" y="432" width="16" height="16" fill="#d97b4f"/>
  <rect x="144" y="432" width="16" height="16" fill="#d97b4f"/>
  <rect x="160" y="432" width="16" height="16" fill="#d97b4f"/>
  <rect x="176" y="432" width="16" height="16" fill="#d97b4f"/>
  <rect x="192" y="432" width="16" height="16" fill="#d97b4f"/>
  <rect x="208" y="432" width="16" height="16" fill="#d97b4f"/>
  <rect x="224" y="432" width="16" height="16" fill="#d97b4f"/>
  <rect x="240" y="432" width="16" height="16" fill="#d97b4f"/>
  <rect x="256" y="432" width="16" height="16" fill="#d97b4f"/>
  <rect x="272" y="432" width="16" height="16" fill="#d97b4f"/>
  <rect x="288" y="432" width="16" height="16" fill="#d97b4f"/>
  <rect x="304" y="432" width="16" height="16" fill="#d97b4f"/>
  <rect x="320" y="432" width="16" height="16" fill="#d97b4f"/>
  <rect x="336" y="432" width="16" height="16" fill="#d97b4f"/>
  <rect x="352" y="432" width="16" height="16" fill="#d97b4f"/>
  <rect x="368" y="432" width="16" height="16" fill="#d97b4f"/>
</svg>